<?xml version="1.0" encoding="utf-8"?>
<!-- Generator: Adobe Illustrator 19.0.0, SVG Export Plug-In . SVG Version: 6.00 Build 0)  -->
<svg version="1.1" id="Layer_1" xmlns="http://www.w3.org/2000/svg" xmlns:xlink="http://www.w3.org/1999/xlink" x="0px" y="0px"
	 width="1580px" height="1072px" viewBox="0 0 1580 1072" style="enable-background:new 0 0 1580 1072;" xml:space="preserve">
<style type="text/css">
	.st0{fill:url(#XMLID_34_);}
	.st1{fill:#DEF2E3;}
	.st2{fill:#6DBCC2;}
</style>
<g id="XMLID_1_">
	<linearGradient id="XMLID_34_" gradientUnits="userSpaceOnUse" x1="790" y1="1072" x2="790" y2="-3.546847e-08">
		<stop  offset="0" style="stop-color:#FFF7B3"/>
		<stop  offset="6.981225e-02" style="stop-color:#E6F2BF"/>
		<stop  offset="0.1698" style="stop-color:#CAEDCC"/>
		<stop  offset="0.2773" style="stop-color:#B4E8D6"/>
		<stop  offset="0.3943" style="stop-color:#A4E5DD"/>
		<stop  offset="0.528" style="stop-color:#9BE4E2"/>
		<stop  offset="0.7152" style="stop-color:#98E3E3"/>
		<stop  offset="1" style="stop-color:#80D9D9"/>
	</linearGradient>
	<rect id="XMLID_40_" class="st0" width="1580" height="1072"/>
	<path id="XMLID_39_" class="st1" d="M1245.4,705.2c0,0,9.5-33.1,44.4-12.3c0,0-7.4-68.1,52-17c0,0,87.6-148.2,108.7,5.2
		c0,0,51.5-64.1,42.5,10c0,0,33.1-13.7,37.4,14.2H1245.4z"/>
	<path id="XMLID_38_" class="st1" d="M256.3,494c0,0-4-19-34.4-11.5c0,0-50.7-114.9-102.6-10.8c0,0-33.8-30.6-39.7,11.3
		c0,0-28.5-9.8-37.9,11.2L256.3,494z"/>
	<path id="XMLID_16_" class="st1" d="M1549.5,294.6c0,0-4-19-34.4-11.5c0,0-50.7-114.9-102.6-10.8c0,0-33.8-30.6-39.7,11.3
		c0,0-28.5-9.8-37.9,11.2L1549.5,294.6z"/>
	<path id="XMLID_15_" class="st2" d="M89.9,210.4c0,0,27.7-4,51.2,13.4c0,0,22.6-18.9,53.1-21.6c0,0-24.3-7.3-52.2,11.9
		C142,214,122.2,199.7,89.9,210.4z"/>
	<path id="XMLID_14_" class="st2" d="M105.7,546c0,0,9.1,0.7,15.4,8c0,0,8.6-4.4,18.5-3.1c0,0-7.2-4.1-17.5,0
		C122.1,550.9,116.8,544.9,105.7,546z"/>
	<path id="XMLID_13_" class="st2" d="M1473.9,162.7c0,0,9.1,0.7,15.4,8c0,0,8.6-4.4,18.5-3.1c0,0-7.2-4.1-17.5,0
		C1490.3,167.6,1485,161.6,1473.9,162.7z"/>
	<path id="XMLID_12_" class="st2" d="M254.8,236c0,0,21.2,1.7,35.7,18.5c0,0,20-10.2,43-7.1c0,0-16.8-9.5-40.7,0
		C292.8,247.4,280.5,233.4,254.8,236z"/>
</g>
</svg>
